<mxfile host="app.diagrams.net" modified="2024-03-30T07:13:21.164Z" agent="Mozilla/5.0 (Windows NT 10.0; Win64; x64) AppleWebKit/537.36 (KHTML, like Gecko) Chrome/123.0.0.0 Safari/537.36" etag="YWOlMbZPclI9LzAgESuk" version="24.2.1" type="device">
  <diagram name="Page-1" id="BHaeUw2jec1ACdndj3Xi">
    <mxGraphModel dx="2564" dy="459" grid="1" gridSize="10" guides="1" tooltips="1" connect="1" arrows="1" fold="1" page="1" pageScale="1" pageWidth="827" pageHeight="1169" math="0" shadow="0">
      <root>
        <mxCell id="0" />
        <mxCell id="1" parent="0" />
        <mxCell id="_d0kSf7f0uNMeueQVCch-302" value="0" style="swimlane;whiteSpace=wrap;html=1;" vertex="1" parent="1">
          <mxGeometry x="-880" y="170" width="180" height="130" as="geometry" />
        </mxCell>
        <mxCell id="_d0kSf7f0uNMeueQVCch-303" value="&lt;font style=&quot;font-size: 19px;&quot;&gt;Construction&lt;/font&gt;&lt;div&gt;&lt;font style=&quot;font-size: 19px;&quot;&gt;Management&lt;/font&gt;&lt;/div&gt;&lt;div&gt;&lt;font style=&quot;font-size: 19px;&quot;&gt;System&lt;/font&gt;&lt;/div&gt;" style="text;html=1;align=center;verticalAlign=middle;resizable=0;points=[];autosize=1;strokeColor=none;fillColor=none;" vertex="1" parent="_d0kSf7f0uNMeueQVCch-302">
          <mxGeometry x="20" y="40" width="130" height="80" as="geometry" />
        </mxCell>
        <mxCell id="_d0kSf7f0uNMeueQVCch-304" value="" style="endArrow=classic;html=1;rounded=0;" edge="1" parent="1">
          <mxGeometry width="50" height="50" relative="1" as="geometry">
            <mxPoint x="-1010" y="220" as="sourcePoint" />
            <mxPoint x="-880" y="220" as="targetPoint" />
          </mxGeometry>
        </mxCell>
        <mxCell id="_d0kSf7f0uNMeueQVCch-305" value="" style="endArrow=classic;html=1;rounded=0;entryX=0;entryY=0.25;entryDx=0;entryDy=0;" edge="1" parent="1">
          <mxGeometry width="50" height="50" relative="1" as="geometry">
            <mxPoint x="-1010" y="255" as="sourcePoint" />
            <mxPoint x="-880" y="253" as="targetPoint" />
          </mxGeometry>
        </mxCell>
        <mxCell id="_d0kSf7f0uNMeueQVCch-306" value="" style="endArrow=classic;html=1;rounded=0;" edge="1" parent="1">
          <mxGeometry width="50" height="50" relative="1" as="geometry">
            <mxPoint x="-699" y="218" as="sourcePoint" />
            <mxPoint x="-569" y="218" as="targetPoint" />
          </mxGeometry>
        </mxCell>
        <mxCell id="_d0kSf7f0uNMeueQVCch-307" value="" style="endArrow=classic;html=1;rounded=0;exitX=0.067;exitY=1.075;exitDx=0;exitDy=0;exitPerimeter=0;" edge="1" parent="1">
          <mxGeometry width="50" height="50" relative="1" as="geometry">
            <mxPoint x="-568.39" y="256" as="sourcePoint" />
            <mxPoint x="-699.6" y="258" as="targetPoint" />
          </mxGeometry>
        </mxCell>
        <mxCell id="_d0kSf7f0uNMeueQVCch-308" value="&lt;font style=&quot;font-size: 15px;&quot;&gt;info&lt;/font&gt;" style="text;html=1;align=center;verticalAlign=middle;resizable=0;points=[];autosize=1;strokeColor=none;fillColor=none;" vertex="1" parent="1">
          <mxGeometry x="-975" y="188" width="50" height="30" as="geometry" />
        </mxCell>
        <mxCell id="_d0kSf7f0uNMeueQVCch-309" value="&lt;font style=&quot;font-size: 15px;&quot;&gt;project&lt;/font&gt;" style="text;html=1;align=center;verticalAlign=middle;resizable=0;points=[];autosize=1;strokeColor=none;fillColor=none;" vertex="1" parent="1">
          <mxGeometry x="-1000" y="228" width="70" height="30" as="geometry" />
        </mxCell>
        <mxCell id="_d0kSf7f0uNMeueQVCch-310" value="&lt;font style=&quot;font-size: 15px;&quot;&gt;project&lt;/font&gt;" style="text;html=1;align=center;verticalAlign=middle;resizable=0;points=[];autosize=1;strokeColor=none;fillColor=none;" vertex="1" parent="1">
          <mxGeometry x="-669" y="188" width="70" height="30" as="geometry" />
        </mxCell>
        <mxCell id="_d0kSf7f0uNMeueQVCch-311" value="&lt;font style=&quot;font-size: 15px;&quot;&gt;response&lt;/font&gt;" style="text;html=1;align=center;verticalAlign=middle;resizable=0;points=[];autosize=1;strokeColor=none;fillColor=none;" vertex="1" parent="1">
          <mxGeometry x="-669" y="260" width="90" height="30" as="geometry" />
        </mxCell>
        <mxCell id="_d0kSf7f0uNMeueQVCch-312" value="&lt;div style=&quot;font-size: 20px;&quot;&gt;&lt;br&gt;&lt;/div&gt;" style="text;html=1;align=center;verticalAlign=middle;resizable=0;points=[];autosize=1;strokeColor=none;fillColor=none;" vertex="1" parent="1">
          <mxGeometry x="-680" y="33" width="20" height="40" as="geometry" />
        </mxCell>
        <mxCell id="_d0kSf7f0uNMeueQVCch-313" value="&lt;font style=&quot;font-size: 20px;&quot;&gt;Diagram 0&lt;/font&gt;" style="text;html=1;align=center;verticalAlign=middle;resizable=0;points=[];autosize=1;strokeColor=none;fillColor=none;" vertex="1" parent="1">
          <mxGeometry x="-820" y="73" width="120" height="40" as="geometry" />
        </mxCell>
        <mxCell id="_d0kSf7f0uNMeueQVCch-314" value="&lt;font style=&quot;font-size: 19px;&quot;&gt;Client&lt;/font&gt;" style="whiteSpace=wrap;html=1;aspect=fixed;" vertex="1" parent="1">
          <mxGeometry x="-1120" y="190" width="110" height="110" as="geometry" />
        </mxCell>
        <mxCell id="_d0kSf7f0uNMeueQVCch-315" value="&lt;font style=&quot;font-size: 19px;&quot;&gt;Project&lt;/font&gt;" style="whiteSpace=wrap;html=1;aspect=fixed;" vertex="1" parent="1">
          <mxGeometry x="-570" y="180" width="110" height="110" as="geometry" />
        </mxCell>
        <mxCell id="_d0kSf7f0uNMeueQVCch-316" value="&lt;font style=&quot;font-size: 15px;&quot;&gt;response&lt;/font&gt;" style="text;html=1;align=center;verticalAlign=middle;resizable=0;points=[];autosize=1;strokeColor=none;fillColor=none;" vertex="1" parent="1">
          <mxGeometry x="-975" y="270" width="90" height="30" as="geometry" />
        </mxCell>
        <mxCell id="_d0kSf7f0uNMeueQVCch-317" value="" style="endArrow=classic;html=1;rounded=0;exitX=0.067;exitY=1.075;exitDx=0;exitDy=0;exitPerimeter=0;" edge="1" parent="1">
          <mxGeometry width="50" height="50" relative="1" as="geometry">
            <mxPoint x="-880" y="270" as="sourcePoint" />
            <mxPoint x="-1011.21" y="272" as="targetPoint" />
          </mxGeometry>
        </mxCell>
      </root>
    </mxGraphModel>
  </diagram>
</mxfile>
